<?xml version="1.0" encoding="utf-8"?>
<!-- Generator: Adobe Illustrator 16.0.0, SVG Export Plug-In . SVG Version: 6.00 Build 0)  -->
<!DOCTYPE svg PUBLIC "-//W3C//DTD SVG 1.1//EN" "http://www.w3.org/Graphics/SVG/1.1/DTD/svg11.dtd">
<svg version="1.1" id="Layer_1" xmlns="http://www.w3.org/2000/svg" xmlns:xlink="http://www.w3.org/1999/xlink" x="0px" y="0px"
	 width="641px" height="259.227px" viewBox="-28 0 641 259.227" enable-background="new -28 0 641 259.227" xml:space="preserve">
<g id="Layer_3" display="none">
	<rect x="-25" y="-81.386" display="inline" fill="#F7941E" width="601" height="339.226"/>
</g>
<path fill-rule="evenodd" clip-rule="evenodd" fill="#10284A" d="M155.345,152.157h-20.896c-2.254,0-4.073-0.646-5.45-1.941
	c-1.377-1.293-2.066-3.143-2.066-5.539v-24.873h7.517v19.938c0,1.887,0.188,3.114,0.565,3.681c0.551,0.835,1.814,1.255,3.793,1.255
	h8.984v-24.873h7.553V152.157z"/>
<polygon fill-rule="evenodd" clip-rule="evenodd" fill="#10284A" points="187.028,152.157 177.331,152.157 166.245,132.137 
	166.245,152.157 158.652,152.157 158.652,119.803 168.35,119.803 179.437,139.741 179.437,119.803 187.028,119.803 "/>
<rect x="190.335" y="119.804" fill-rule="evenodd" clip-rule="evenodd" fill="#10284A" width="7.518" height="32.354"/>
<polygon fill-rule="evenodd" clip-rule="evenodd" fill="#10284A" points="228.481,119.802 219.049,152.156 210.065,152.156 
	200.106,119.802 208.714,119.802 214.089,139.74 219.839,119.802 "/>
<path fill-rule="evenodd" clip-rule="evenodd" fill="#10284A" d="M260.166,127.447h-28.378v-7.643h28.378V127.447z M260.166,139.74
	h-28.378v-7.602h28.378V139.74z M260.166,152.158h-28.378v-7.481h28.378V152.158z"/>
<path fill-rule="evenodd" clip-rule="evenodd" fill="#10284A" d="M292.563,152.157h-9.059l-7.705-12.416h-4.813v12.416h-7.514
	v-20.02h16.16c1.254,0,2.119-0.081,2.596-0.243c0.975-0.323,1.463-0.997,1.463-2.021c0-1.617-1.326-2.428-3.982-2.428h-16.236
	v-7.642h18.828c2.883,0,5.178,0.915,6.881,2.749c1.727,1.833,2.592,4.299,2.592,7.401c0,2.669-0.889,4.974-2.668,6.917
	c-1.455,1.591-2.906,2.48-4.359,2.666L292.563,152.157z"/>
<path fill-rule="evenodd" clip-rule="evenodd" fill="#10284A" d="M323.345,144.553c0,2.671-0.627,4.609-1.879,5.823
	c-1.23,1.186-3.109,1.78-5.637,1.78h-20.748v-7.604h19.242c0.326,0,0.65-0.148,0.979-0.444c0.352-0.298,0.527-0.608,0.527-0.931
	v-2.102c0-0.325-0.176-0.635-0.527-0.933c-0.328-0.295-0.652-0.443-0.979-0.443h-13.117c-1.504,0-2.844-0.379-4.02-1.133
	c-1.406-0.863-2.105-2.049-2.105-3.56v-9.545c0-1.859,0.602-3.29,1.805-4.286c1.104-0.918,2.541-1.375,4.32-1.375h22.139v7.603
	h-19.209c-1.051,0-1.574,0.391-1.574,1.172v2.428c0,0.728,0.424,1.092,1.275,1.092h12.33c2.127,0,3.844,0.687,5.15,2.063
	c1.324,1.348,1.988,3.168,1.988,5.459h0.039V144.553z"/>
<rect x="326.612" y="119.804" fill-rule="evenodd" clip-rule="evenodd" fill="#10284A" width="7.518" height="32.354"/>
<path fill-rule="evenodd" clip-rule="evenodd" fill="#10284A" d="M364.761,144.675c0,2.886-0.59,4.881-1.77,5.986
	c-1.1,0.999-3.016,1.496-5.746,1.496h-20.863v-7.482h17.705c2.104,0,3.158-1.172,3.158-3.519v-9.908c0-2.535-0.941-3.803-2.82-3.803
	h-10.676v16.301h-7.367v-23.942h20.863c2.678,0,4.598,0.565,5.746,1.697c1.18,1.131,1.77,3.115,1.77,5.945V144.675z"/>
<path fill-rule="evenodd" clip-rule="evenodd" fill="#10284A" d="M397.647,152.157h-8.344l-6.656-21.192l-6.051,21.192h-8.527
	l10.369-32.354h9.363L397.647,152.157z M388.288,152.157h-10.859l2.141-7.48h6.35L388.288,152.157z"/>
<path fill-rule="evenodd" clip-rule="evenodd" fill="#10284A" d="M429.364,144.675c0,2.886-0.586,4.881-1.764,5.986
	c-1.104,0.999-3.021,1.496-5.754,1.496h-20.855v-7.482h17.701c2.105,0,3.154-1.172,3.154-3.519v-9.908
	c0-2.535-0.938-3.803-2.816-3.803h-10.674v16.301h-7.365v-23.942h20.855c2.686,0,4.602,0.565,5.754,1.697
	c1.178,1.131,1.764,3.115,1.764,5.945V144.675z"/>
<path fill-rule="evenodd" clip-rule="evenodd" fill="#10284A" d="M482.474,152.157h-8.346l-6.652-21.192l-6.051,21.192h-8.531
	l10.375-32.354h9.355L482.474,152.157z M473.114,152.157h-10.863l2.143-7.48h6.352L473.114,152.157z"/>
<path fill-rule="evenodd" clip-rule="evenodd" fill="#10284A" d="M485.817,127.445v-7.642h18.453c4.434,0,6.664,2.358,6.688,7.077
	v6.391c0,1.238-0.199,2.304-0.6,3.193c-0.975,2.158-2.844,3.249-5.602,3.276h-11.424v12.416h-7.516v-20.02h16.16
	c0.602,0,1.039-0.095,1.314-0.283s0.414-0.581,0.414-1.173v-1.657c-0.076-0.999-0.625-1.525-1.652-1.579H485.817z"/>
<path fill-rule="evenodd" clip-rule="evenodd" fill="#10284A" d="M545.8,127.447h-28.375v-7.643H545.8V127.447z M545.8,139.74
	h-28.375v-7.602H545.8V139.74z M545.8,152.158h-28.375v-7.481H545.8V152.158z"/>
<path fill-rule="evenodd" clip-rule="evenodd" fill="#10284A" d="M577.483,152.157h-20.82c-2.758,0-4.676-0.497-5.754-1.495
	c-1.203-1.081-1.803-3.074-1.803-5.985v-17.231c0-2.857,0.6-4.866,1.803-6.024c1.154-1.08,3.07-1.617,5.754-1.617h20.82v7.642
	h-18.039c-1.857,0-2.781,1.268-2.781,3.804v9.907c0,2.345,1.047,3.521,3.154,3.521h17.666V152.157z"/>
<path fill-rule="evenodd" clip-rule="evenodd" fill="#10284A" d="M194.574,103.822h-50.013c-5.395,0-9.744-1.438-13.042-4.315
	s-4.948-6.988-4.948-12.326V31.865h17.99v44.345c0,4.196,0.449,6.925,1.35,8.184c1.32,1.859,4.346,2.787,9.082,2.787h21.502V31.865
	h18.079V103.822z"/>
<polygon fill-rule="evenodd" clip-rule="evenodd" fill="#10284A" points="270.401,103.822 247.194,103.822 220.659,59.297 
	220.659,103.822 202.489,103.822 202.489,31.865 225.694,31.865 252.229,76.209 252.229,31.865 270.401,31.865 "/>
<path fill-rule="evenodd" clip-rule="evenodd" fill="#10284A" d="M349.106,103.822h-19.969l-15.92-47.131l-14.484,47.131h-20.416
	l24.824-71.957h22.396L349.106,103.822z M326.708,103.822h-25.992l5.127-16.641h15.199L326.708,103.822z"/>
<path fill-rule="evenodd" clip-rule="evenodd" fill="#10284A" d="M357.112,48.864V31.865h44.164
	c10.615,0,15.951,5.246,16.012,15.738v14.214c0,2.757-0.479,5.128-1.439,7.106c-2.34,4.797-6.803,7.226-13.402,7.284h-27.344v27.615
	h-17.99V59.297h38.68c1.438,0,2.488-0.21,3.148-0.63c0.66-0.419,0.988-1.288,0.988-2.608v-3.687
	c-0.18-2.221-1.498-3.389-3.957-3.509H357.112z"/>
<path fill-rule="evenodd" clip-rule="evenodd" fill="#10284A" d="M500.671,48.864h-67.91V31.865h67.91V48.864z M500.671,76.209
	h-67.91V59.298h67.91V76.209z M500.671,103.822h-67.91V87.18h67.91V103.822z"/>
<path fill-rule="evenodd" clip-rule="evenodd" fill="#10284A" d="M576.499,103.822h-49.836c-6.594,0-11.182-1.107-13.76-3.326
	c-2.881-2.399-4.314-6.836-4.314-13.315V48.863c0-6.354,1.434-10.822,4.314-13.401c2.758-2.397,7.344-3.597,13.76-3.597h49.836
	v16.998h-43.178c-4.438,0-6.658,2.819-6.658,8.456v22.04c0,5.217,2.52,7.822,7.557,7.822h42.279V103.822z"/>
<path fill-rule="evenodd" clip-rule="evenodd" fill="#BF960E" d="M5.246,85.988c0,0,14.221,11.688,27.071,3.526
	c0-0.034,14.639-7.955,25.496,3.38c10.852-11.334,25.494-3.414,25.494-3.38c12.848,8.162,27.07-3.526,27.07-3.526V23.67
	c0,0-14.293,11.072-27.144,2.912c0-0.035-14.569-7.34-25.421,3.995c-10.857-11.335-25.564-4.03-25.564-3.995
	C19.402,34.742,5.246,23.67,5.246,23.67V85.988z"/>
<path fill-rule="evenodd" clip-rule="evenodd" fill="#10284A" d="M7.563,84.793c0,0,12.73,9.674,24.754,2.501
	c0-0.034,14.639-9.014,25.494,2.321c10.855-11.335,25.496-2.355,25.496-2.321c12.023,7.172,24.753-2.501,24.753-2.501v-56.82
	c0,0-11.771,9.263-24.554,1.34c0-0.036-14.84-6.967-25.695,4.371c-10.855-11.338-25.699-4.406-25.699-4.371
	c-12.644,8.057-24.549-1.34-24.549-1.34V84.793z"/>
<path fill-rule="evenodd" clip-rule="evenodd" fill="#BF960E" d="M110.376,87.694c0,0-14.291,11.07-27.144,2.908
	c0-0.032-14.565-7.34-25.421,3.998c-10.855-11.338-25.561-4.03-25.561-3.998c-12.852,8.162-27.007-2.908-27.007-2.908l0.011,23.283
	c0,29.219,26.851,52.595,52.645,57.331c25.797-4.736,53.141-27.832,52.482-57.415L110.376,87.694z"/>
<path fill-rule="evenodd" clip-rule="evenodd" fill="#10284A" d="M108.056,92.019l-0.018,18.874c0,27.324-25.1,49.284-50.219,54.759
	c-24.957-5.908-49.437-27.645-50.01-54.657L7.574,92.019c0,0,11.895,9.373,24.538,1.315c0-0.034,14.844-6.966,25.701,4.375
	c10.854-11.34,25.693-4.409,25.693-4.375C96.29,101.258,108.056,92.019,108.056,92.019"/>
<path fill-rule="evenodd" clip-rule="evenodd" fill="#BF960E" d="M13.222,104.93v11.661c0,0,0.041,2.776,3.301,3.295h10.625v-14.988
	h-3.719v10.797h-5.189c0,0-0.953,0.103-1.012-0.749v-10.048h-4.146L13.222,104.93z"/>
<polygon fill-rule="evenodd" clip-rule="evenodd" fill="#BF960E" points="29.421,119.85 33.511,119.85 33.511,109.675 
	38.269,119.884 43.995,119.884 43.995,104.838 39.903,104.838 39.903,114.037 35.592,104.868 29.421,104.868 "/>
<polygon fill-rule="evenodd" clip-rule="evenodd" fill="#BF960E" points="45.332,119.829 49.866,105.058 55.778,105.058 
	60.537,119.81 56.597,119.81 52.915,108.187 49.311,119.884 45.325,119.884 "/>
<polygon fill-rule="evenodd" clip-rule="evenodd" fill="#BF960E" points="50.091,119.883 51.132,116.68 54.699,116.68 
	55.665,119.883 "/>
<path fill-rule="evenodd" clip-rule="evenodd" fill="#BF960E" d="M62.099,104.982h9.107c0,0,3.01,0.26,3.492,3.017v5.179
	c0,0-0.146,2.571-2.896,3.056h-5.765v3.616h-3.902v-7.195h7.771c0,0,0.779,0,0.779-0.708v-2.905c0,0-0.146-0.633-0.854-0.67
	c-0.298-0.037-7.731,0-7.731,0V104.982z"/>
<rect x="76.956" y="104.982" fill-rule="evenodd" clip-rule="evenodd" fill="#BF960E" width="10.816" height="3.536"/>
<rect x="76.956" y="110.747" fill-rule="evenodd" clip-rule="evenodd" fill="#BF960E" width="10.816" height="3.541"/>
<rect x="76.956" y="116.512" fill-rule="evenodd" clip-rule="evenodd" fill="#BF960E" width="10.816" height="3.541"/>
<path fill-rule="evenodd" clip-rule="evenodd" fill="#BF960E" d="M102.542,104.999v3.389h-7.594c0,0-1.021,0.246-0.977,1.292
	c0.045,0.468,0,5.772,0,5.772s-0.112,0.891,0.936,1.205h7.646v3.431h-9.939c0,0-3.182-0.577-2.823-3.745v-7.819
	c0,0-0.065-3.078,2.935-3.525H102.542z"/>
<path fill="#BF960E" d="M45.366,127.613c-0.067,1.848-0.166,3.699-0.316,5.537h2.437c0-1.704,0.259-6.333,0.417-7.572h-2.398
	c-0.375,0.364-0.86,0.58-1.293,0.853l-0.08,2.009L45.366,127.613z"/>
<path fill="#BF960E" d="M54.925,133.149c1.006-1.384,2.49-3.429,2.49-5.199c0-1.111-0.656-2.506-3.068-2.506
	c-1.776,0-3.465,0.884-3.465,2.869c0,1.636,1.324,2.171,2.197,2.171h0.352l1.086-1.613c-0.146,0.036-0.295,0.068-0.453,0.068
	c-0.51,0-0.916-0.328-0.905-0.863c-0.011-0.623,0.442-1.044,1.052-1.044c0.601,0,0.929,0.456,0.929,1.012
	c0,1.341-2.161,3.937-3.079,5.105H54.925z"/>
<path fill="#BF960E" d="M61.062,125.578c-2.039,2.76-2.47,4.055-2.47,5.199c0,1.807,1.552,2.512,3.148,2.512
	c2.47,0,3.345-1.434,3.345-2.829c0-1.349-0.763-2.177-2.132-2.177c-0.192,0-0.386,0.009-0.59,0.045l-0.928,1.555
	c0.183-0.023,0.361-0.059,0.534-0.059c0.52,0,0.836,0.331,0.836,0.83c0,0.554-0.363,1.043-0.998,1.043
	c-0.588,0-0.938-0.465-0.938-1.021c0-1.564,1.971-3.962,3-5.098H61.062z"/>
<path fill="#BF960E" d="M69.316,127.203h1.37c0.587,0,1.336,0.01,1.666,0.034l0.09-1.66h-5.368
	c-0.067,1.444-0.194,2.885-0.316,4.313c0.532-0.066,1.073-0.12,1.617-0.12c0.567,0,1.542,0.054,1.542,0.86
	c0,0.727-0.85,0.999-1.449,0.999c-0.646,0-1.282-0.147-1.902-0.341l0.158,1.748c0.668,0.172,1.358,0.251,2.061,0.251
	c3.012,0,3.793-1.591,3.793-2.667c0-1.578-1.392-2.146-2.764-2.146c-0.202,0-0.406,0.009-0.609,0.022L69.316,127.203z"/>
<path fill-rule="evenodd" clip-rule="evenodd" fill="#FFFFFF" d="M31.979,58.059c0-14.243,11.521-25.787,25.73-25.787
	c14.213,0,25.731,11.543,25.731,25.787s-11.63,26.177-25.841,26.177C43.394,84.237,31.979,72.302,31.979,58.059"/>
<path fill-rule="evenodd" clip-rule="evenodd" fill="#CC0000" d="M59.55,31.226c14.173,0.91,25.376,12.718,25.376,27.149
	c0,13.784-11.878,25.795-25.764,27.214l0.499-1.505c4.764-0.449,11.513-3.648,15.053-6.87c-2.852-2.592-7.65-5.396-11.442-6.468
	l0.218-1.736c3.979,1.187,9.629,4.076,12.626,6.826c4.062-4.325,6.624-10.084,6.832-16.44l-13.194-0.005l0.611-1.771l12.583-0.001
	c-0.231-6.488-2.903-12.349-7.125-16.691c-1.874,1.672-6.712,4.371-8.968,5.474l-0.705-1.744c1.898-0.965,6.819-3.695,8.403-5.089
	c-2.319-2.045-5.021-3.667-7.976-4.748c-6.182-2.083-11.893-2.009-17.215-0.075c-3.033,0.724-5.873,2.776-8.196,4.822
	c1.649,1.451,6.506,4.232,8.506,5.202l-0.81,1.516c-2.37-1.103-7.199-3.799-9.125-5.517c-4.222,4.344-6.893,10.205-7.125,16.688
	l12.467,0.003l-0.396,1.846l-12.104,0.008c0.213,6.357,2.804,12.039,6.867,16.364c2.999-2.754,8.606-5.323,12.62-6.52l0.226,1.716
	c-3.723,1.102-8.66,3.65-11.442,6.185c3.595,3.271,9.818,6.242,14.855,6.986l0.34,1.525c-13.437-1.632-25.411-13.29-25.411-27.195
	c0-14.431,11.217-26.24,25.387-27.149H59.55z"/>
<path fill="#CC0000" d="M59.206,86.027l-0.462-0.578l0.497-1.505l0.378-0.299c4.39-0.414,10.741-3.26,14.43-6.431
	c-2.96-2.568-7.456-5.071-10.896-6.046l-0.318-0.48l0.219-1.733l0.563-0.369c3.701,1.108,9.273,3.855,12.468,6.633
	c3.849-4.239,6.109-9.67,6.406-15.385L69.753,59.83l-0.418-0.582l0.611-1.771l0.414-0.299l12.125-0.001
	c-0.316-5.85-2.68-11.373-6.693-15.643c-2.121,1.732-6.654,4.244-8.744,5.264l-0.602-0.233l-0.705-1.742l0.208-0.559
	c1.926-0.979,6.111-3.316,7.917-4.705c-2.219-1.877-4.723-3.329-7.439-4.324c-5.888-1.985-11.573-2.016-16.916-0.076
	c-2.379,0.572-4.877,2.008-7.662,4.4c1.867,1.459,6.151,3.911,8.016,4.817l0.197,0.604l-0.811,1.514l-0.575,0.192
	c-2.114-0.986-6.723-3.518-8.908-5.312c-4.015,4.273-6.376,9.796-6.691,15.646l12.001,0.003l0.431,0.532l-0.395,1.845l-0.431,0.348
	L33.04,59.754c0.295,5.647,2.566,11.05,6.438,15.306c3.167-2.732,8.617-5.175,12.463-6.323l0.563,0.367l0.226,1.713l-0.313,0.48
	c-3.757,1.113-8.244,3.496-10.901,5.764c3.623,3.124,9.527,5.85,14.257,6.549l0.364,0.341l0.338,1.524l-0.483,0.533
	c-14.224-1.728-25.798-14.125-25.798-27.633c0-14.543,11.334-26.662,25.801-27.59h3.557c14.489,0.928,25.815,13.047,25.815,27.59
	C85.365,72.153,73.632,84.555,59.206,86.027 M59.989,84.494l-0.191,0.578c13.674-1.739,24.688-13.576,24.688-26.696
	c0-14.082-10.967-25.814-24.965-26.709h-3.498c-13.977,0.896-24.947,12.631-24.947,26.709c0,12.883,10.89,24.722,24.401,26.676
	l-0.136-0.616c-4.998-0.818-11.166-3.752-14.787-7.05v-0.653c2.6-2.368,7.277-4.925,11.251-6.17l-0.109-0.83
	c-3.851,1.218-9.071,3.626-11.95,6.27l-0.617-0.024c-4.302-4.571-6.784-10.486-6.989-16.649l0.44-0.455l11.748-0.008l0.206-0.965
	l-11.919-0.002l-0.443-0.457c0.229-6.373,2.803-12.402,7.25-16.981l0.608-0.021c1.729,1.54,6.04,4.012,8.642,5.267l0.396-0.743
	c-2.194-1.115-6.605-3.668-8.193-5.064v-0.664c3.057-2.693,5.797-4.302,8.385-4.919c5.431-1.977,11.361-1.968,17.459,0.084
	c2.996,1.096,5.726,2.722,8.125,4.835V39.9c-1.592,1.402-6.186,3.946-8.135,4.964l0.378,0.931c2.273-1.15,6.704-3.645,8.444-5.197
	l0.609,0.022c4.448,4.574,7.02,10.607,7.247,16.98l-0.442,0.455l-12.27,0.003l-0.305,0.891l12.577,0.006l0.442,0.455
	c-0.209,6.237-2.68,12.179-6.955,16.727l-0.617,0.021c-2.905-2.667-8.228-5.365-11.956-6.572l-0.106,0.84
	c3.652,1.122,8.322,3.794,11.256,6.462v0.651C71.345,80.88,64.677,83.954,59.989,84.494"/>
<path fill-rule="evenodd" clip-rule="evenodd" fill="#707E92" d="M62.734,34.138c0.514,1.665,1.869,5.399,1.869,5.399l2.028,5.669
	l4.209,11.996l0.879,2.171l-0.432,0.215c-3.025,1.941-4.928,5.396-6.704,9.611l-0.723,1.844c-1.743,4.295-3.802,10.317-4.461,14.981
	h-0.782l0.02-25.625c0.839-0.331,1.402-1.146,1.402-2.104c0-1.252-1.012-2.264-2.26-2.264c-1.246,0-2.258,1.012-2.258,2.264
	c0,0.958,0.544,1.79,1.381,2.119l0.01,25.611h-0.994c-0.361-3.888-2.34-10.71-3.975-15.066l-0.796-2.274
	c-1.79-4.186-3.97-7.487-6.996-9.429l0.109-0.265l0.685-1.935l4.061-12.068l1.67-4.943l1.832-5.798
	C57.607,33.2,59.424,33.777,62.734,34.138"/>
</svg>
